<?xml version="1.0" standalone="no"?>
<!DOCTYPE svg PUBLIC "-//W3C//DTD SVG 20010904//EN"
 "http://www.w3.org/TR/2001/REC-SVG-20010904/DTD/svg10.dtd">
<svg version="1.0" xmlns="http://www.w3.org/2000/svg"
 width="512.000000pt" height="512.000000pt" viewBox="0 0 512.000000 512.000000"
 preserveAspectRatio="xMidYMid meet">

<g transform="translate(0.000000,512.000000) scale(0.100000,-0.100000)"
fill="#02202b" stroke="none">
<path d="M2300 4969 c-229 -26 -495 -104 -707 -208 -653 -321 -1090 -925
-1198 -1656 -21 -142 -22 -432 -1 -575 56 -391 199 -737 435 -1045 109 -144
355 -373 493 -460 27 -17 48 -34 48 -40 0 -5 -126 -201 -279 -435 -153 -234
-277 -426 -276 -428 4 -5 2335 611 2434 644 140 46 361 155 491 242 803 535
1154 1515 874 2439 -65 215 -190 469 -317 643 -351 481 -888 798 -1480 875
-127 16 -391 18 -517 4z m450 -1321 c81 -37 144 -98 182 -176 31 -63 33 -73
33 -172 0 -94 -3 -111 -28 -161 -32 -67 -119 -152 -181 -180 -195 -86 -414 -4
-504 189 -24 50 -27 69 -27 157 0 89 3 106 27 156 48 96 134 169 243 206 63
20 189 11 255 -19z m-1094 -208 c178 -77 232 -318 103 -464 -173 -196 -496
-91 -516 169 -3 33 0 78 6 100 46 172 243 267 407 195z m2124 -1 c188 -83 234
-332 89 -478 -59 -59 -120 -84 -204 -85 -296 -2 -416 390 -165 541 93 56 186
63 280 22z m-688 -682 c71 -35 140 -110 167 -183 18 -48 21 -78 21 -239 l0
-185 -682 2 -683 3 2 185 c2 204 9 238 64 315 38 54 92 92 162 117 48 16 88
18 472 15 l420 -2 57 -28z m-1223 -3 l31 -7 -46 -49 c-76 -81 -88 -119 -92
-290 l-4 -148 -379 0 -379 0 0 148 c0 126 3 153 21 192 33 73 95 128 169 151
30 9 634 12 679 3z m2156 -11 c31 -10 67 -34 96 -63 65 -65 79 -116 79 -287
l0 -133 -374 0 -373 0 -5 144 c-4 137 -6 147 -36 209 -18 36 -48 79 -67 96
-19 17 -35 32 -35 35 0 11 55 14 351 15 270 1 322 -1 364 -16z"/>
</g>
</svg>
